<svg width="100%"  preserveAspectRatio="xMinYMin slice" viewBox="0 0 362 93" fill="none" >
<path d="M31.024 24.32V40.64L46.96 24.32H52L39.376 37.232L52.144 56H47.536L36.688 40.064L31.024 45.824V56H27.184V24.32H31.024ZM65.9804 56.48C63.7084 56.48 61.6764 55.984 59.8844 54.992C58.1244 54 56.7484 52.576 55.7564 50.72C54.7644 48.832 54.2684 46.592 54.2684 44C54.2684 41.408 54.7644 39.184 55.7564 37.328C56.7484 35.44 58.1084 34 59.8364 33.008C61.5644 32.016 63.5324 31.52 65.7404 31.52C67.9804 31.52 69.8844 32 71.4524 32.96C73.0524 33.92 74.2684 35.232 75.1004 36.896C75.9324 38.528 76.3484 40.368 76.3484 42.416C76.3484 42.96 76.3324 43.456 76.3004 43.904C76.2684 44.352 76.2204 44.752 76.1564 45.104H58.0604C58.2524 47.632 59.0364 49.6 60.4124 51.008C61.7884 52.416 63.6124 53.12 65.8844 53.12C67.6444 53.12 69.0684 52.784 70.1564 52.112C71.2764 51.44 72.1724 50.528 72.8444 49.376L75.8684 51.152C74.9724 52.784 73.6764 54.08 71.9804 55.04C70.3164 56 68.3164 56.48 65.9804 56.48ZM65.6444 34.88C63.6284 34.88 61.9644 35.488 60.6524 36.704C59.3724 37.888 58.5564 39.552 58.2044 41.696H72.5084C72.4124 39.52 71.7404 37.84 70.4924 36.656C69.2444 35.472 67.6284 34.88 65.6444 34.88ZM83.6515 56V32H87.0115L87.2515 35.744C88.0835 34.24 89.2195 33.168 90.6595 32.528C92.0995 31.856 93.6515 31.52 95.3155 31.52C97.0435 31.52 98.6115 31.856 100.02 32.528C101.428 33.168 102.548 34.16 103.38 35.504C104.244 36.848 104.676 38.56 104.676 40.64V56H100.836V41.984C100.836 39.328 100.26 37.488 99.1075 36.464C97.9875 35.408 96.5955 34.88 94.9315 34.88C93.7795 34.88 92.6275 35.152 91.4755 35.696C90.3235 36.24 89.3635 37.12 88.5955 38.336C87.8595 39.552 87.4915 41.184 87.4915 43.232V56H83.6515ZM113.37 56V32H116.73L116.97 35.744C117.802 34.24 118.938 33.168 120.378 32.528C121.818 31.856 123.37 31.52 125.034 31.52C126.762 31.52 128.33 31.856 129.738 32.528C131.146 33.168 132.266 34.16 133.098 35.504C133.962 36.848 134.394 38.56 134.394 40.64V56H130.554V41.984C130.554 39.328 129.978 37.488 128.826 36.464C127.706 35.408 126.314 34.88 124.65 34.88C123.498 34.88 122.346 35.152 121.194 35.696C120.042 36.24 119.082 37.12 118.314 38.336C117.578 39.552 117.21 41.184 117.21 43.232V56H113.37ZM153.121 56.48C150.849 56.48 148.817 55.984 147.025 54.992C145.265 54 143.889 52.576 142.897 50.72C141.905 48.832 141.409 46.592 141.409 44C141.409 41.408 141.905 39.184 142.897 37.328C143.889 35.44 145.249 34 146.977 33.008C148.705 32.016 150.673 31.52 152.881 31.52C155.121 31.52 157.025 32 158.593 32.96C160.193 33.92 161.409 35.232 162.241 36.896C163.073 38.528 163.489 40.368 163.489 42.416C163.489 42.96 163.473 43.456 163.441 43.904C163.409 44.352 163.361 44.752 163.297 45.104H145.201C145.393 47.632 146.177 49.6 147.553 51.008C148.929 52.416 150.753 53.12 153.025 53.12C154.785 53.12 156.209 52.784 157.297 52.112C158.417 51.44 159.313 50.528 159.985 49.376L163.009 51.152C162.113 52.784 160.817 54.08 159.121 55.04C157.457 56 155.457 56.48 153.121 56.48ZM152.785 34.88C150.769 34.88 149.105 35.488 147.793 36.704C146.513 37.888 145.697 39.552 145.345 41.696H159.649C159.553 39.52 158.881 37.84 157.633 36.656C156.385 35.472 154.769 34.88 152.785 34.88ZM184.489 32V35.312H175.753V49.376C175.753 50.56 176.089 51.44 176.761 52.016C177.433 52.592 178.297 52.88 179.353 52.88C180.281 52.88 181.081 52.72 181.753 52.4C182.425 52.08 183.033 51.648 183.577 51.104L184.921 54.32C184.185 54.992 183.305 55.52 182.281 55.904C181.289 56.288 180.137 56.48 178.825 56.48C177.609 56.48 176.473 56.272 175.417 55.856C174.361 55.408 173.513 54.72 172.873 53.792C172.265 52.832 171.945 51.584 171.913 50.048V35.312H167.113V32H171.913V26.24L175.753 25.184V32H184.489ZM190.198 56V20.96H194.038V35.6C194.87 34.16 195.974 33.12 197.35 32.48C198.726 31.84 200.23 31.52 201.862 31.52C203.59 31.52 205.158 31.856 206.566 32.528C207.974 33.168 209.094 34.16 209.926 35.504C210.79 36.848 211.222 38.56 211.222 40.64V56H207.382V41.984C207.382 39.328 206.806 37.488 205.654 36.464C204.534 35.408 203.142 34.88 201.478 34.88C200.326 34.88 199.174 35.152 198.022 35.696C196.87 36.24 195.91 37.136 195.142 38.384C194.406 39.6 194.038 41.232 194.038 43.28V56H190.198ZM248.997 24.32C252.229 24.32 254.821 25.152 256.773 26.816C258.725 28.48 259.701 30.736 259.701 33.584C259.701 35.856 259.061 37.728 257.781 39.2C256.501 40.672 254.773 41.68 252.597 42.224L261.621 56H257.061L248.421 42.848H240.837V56H236.997V24.32H248.997ZM248.949 39.248C253.429 39.248 255.669 37.36 255.669 33.584C255.669 29.808 253.429 27.92 248.949 27.92H240.837V39.248H248.949ZM277.338 31.52C279.61 31.52 281.61 32.016 283.338 33.008C285.098 34 286.474 35.44 287.466 37.328C288.458 39.184 288.954 41.408 288.954 44C288.954 46.592 288.458 48.832 287.466 50.72C286.474 52.576 285.098 54 283.338 54.992C281.61 55.984 279.61 56.48 277.338 56.48C275.098 56.48 273.098 55.984 271.338 54.992C269.578 54 268.202 52.576 267.21 50.72C266.218 48.832 265.722 46.592 265.722 44C265.722 41.408 266.218 39.184 267.21 37.328C268.202 35.44 269.578 34 271.338 33.008C273.098 32.016 275.098 31.52 277.338 31.52ZM277.338 34.832C274.906 34.832 273.002 35.648 271.626 37.28C270.25 38.912 269.562 41.152 269.562 44C269.562 46.848 270.25 49.088 271.626 50.72C273.002 52.352 274.906 53.168 277.338 53.168C279.77 53.168 281.674 52.352 283.05 50.72C284.426 49.088 285.114 46.848 285.114 44C285.114 41.152 284.426 38.912 283.05 37.28C281.674 35.648 279.77 34.832 277.338 34.832ZM306.119 31.52C308.391 31.52 310.391 32.016 312.119 33.008C313.879 34 315.255 35.44 316.247 37.328C317.239 39.184 317.735 41.408 317.735 44C317.735 46.592 317.239 48.832 316.247 50.72C315.255 52.576 313.879 54 312.119 54.992C310.391 55.984 308.391 56.48 306.119 56.48C303.879 56.48 301.879 55.984 300.119 54.992C298.359 54 296.983 52.576 295.991 50.72C294.999 48.832 294.503 46.592 294.503 44C294.503 41.408 294.999 39.184 295.991 37.328C296.983 35.44 298.359 34 300.119 33.008C301.879 32.016 303.879 31.52 306.119 31.52ZM306.119 34.832C303.687 34.832 301.783 35.648 300.407 37.28C299.031 38.912 298.343 41.152 298.343 44C298.343 46.848 299.031 49.088 300.407 50.72C301.783 52.352 303.687 53.168 306.119 53.168C308.551 53.168 310.455 52.352 311.831 50.72C313.207 49.088 313.895 46.848 313.895 44C313.895 41.152 313.207 38.912 311.831 37.28C310.455 35.648 308.551 34.832 306.119 34.832ZM338.942 32V35.312H330.206V49.376C330.206 50.56 330.542 51.44 331.214 52.016C331.886 52.592 332.75 52.88 333.806 52.88C334.734 52.88 335.534 52.72 336.206 52.4C336.878 52.08 337.486 51.648 338.03 51.104L339.374 54.32C338.638 54.992 337.758 55.52 336.734 55.904C335.742 56.288 334.59 56.48 333.278 56.48C332.062 56.48 330.926 56.272 329.87 55.856C328.814 55.408 327.966 54.72 327.326 53.792C326.718 52.832 326.398 51.584 326.366 50.048V35.312H321.566V32H326.366V26.24L330.206 25.184V32H338.942Z" fill="#43598A"/>
<path d="M117.26 78.47H110.384V82.304H115.748V83.654H110.384V89H108.944V77.12H117.26V78.47ZM122.402 79.82C123.254 79.82 124.004 80.006 124.652 80.378C125.312 80.75 125.828 81.29 126.2 81.998C126.572 82.694 126.758 83.528 126.758 84.5C126.758 85.472 126.572 86.312 126.2 87.02C125.828 87.716 125.312 88.25 124.652 88.622C124.004 88.994 123.254 89.18 122.402 89.18C121.562 89.18 120.812 88.994 120.152 88.622C119.492 88.25 118.976 87.716 118.604 87.02C118.232 86.312 118.046 85.472 118.046 84.5C118.046 83.528 118.232 82.694 118.604 81.998C118.976 81.29 119.492 80.75 120.152 80.378C120.812 80.006 121.562 79.82 122.402 79.82ZM122.402 81.062C121.49 81.062 120.776 81.368 120.26 81.98C119.744 82.592 119.486 83.432 119.486 84.5C119.486 85.568 119.744 86.408 120.26 87.02C120.776 87.632 121.49 87.938 122.402 87.938C123.314 87.938 124.028 87.632 124.544 87.02C125.06 86.408 125.318 85.568 125.318 84.5C125.318 83.432 125.06 82.592 124.544 81.98C124.028 81.368 123.314 81.062 122.402 81.062ZM129.469 89V80H130.639L130.837 81.476C131.341 80.372 132.301 79.82 133.717 79.82C133.873 79.82 134.041 79.832 134.221 79.856C134.413 79.88 134.575 79.928 134.707 80L134.455 81.314C134.323 81.266 134.179 81.23 134.023 81.206C133.867 81.182 133.645 81.17 133.357 81.17C132.985 81.17 132.607 81.278 132.223 81.494C131.851 81.71 131.539 82.04 131.287 82.484C131.035 82.916 130.909 83.468 130.909 84.14V89H129.469ZM146.633 77.12C148.493 77.12 149.951 77.636 151.007 78.668C152.075 79.688 152.609 81.152 152.609 83.06C152.609 84.968 152.075 86.438 151.007 87.47C149.951 88.49 148.493 89 146.633 89H142.799V77.12H146.633ZM146.777 87.65C148.133 87.65 149.189 87.248 149.945 86.444C150.713 85.628 151.097 84.5 151.097 83.06C151.097 81.62 150.713 80.498 149.945 79.694C149.189 78.878 148.133 78.47 146.777 78.47H144.239V87.65H146.777ZM156.134 78.272C155.81 78.272 155.546 78.176 155.342 77.984C155.15 77.78 155.054 77.516 155.054 77.192C155.054 76.868 155.15 76.61 155.342 76.418C155.546 76.214 155.81 76.112 156.134 76.112C156.458 76.112 156.716 76.214 156.908 76.418C157.112 76.61 157.214 76.868 157.214 77.192C157.214 77.516 157.112 77.78 156.908 77.984C156.716 78.176 156.458 78.272 156.134 78.272ZM156.854 80V89H155.414V80H156.854ZM163.435 89.18C162.559 89.18 161.749 88.994 161.005 88.622C160.273 88.25 159.709 87.722 159.313 87.038L160.537 86.156C160.801 86.708 161.185 87.14 161.689 87.452C162.205 87.764 162.823 87.92 163.543 87.92C164.179 87.92 164.677 87.8 165.037 87.56C165.397 87.308 165.577 86.984 165.577 86.588C165.577 86.336 165.493 86.108 165.325 85.904C165.169 85.688 164.863 85.532 164.407 85.436L162.247 84.986C161.371 84.806 160.741 84.506 160.357 84.086C159.985 83.666 159.799 83.144 159.799 82.52C159.799 82.028 159.937 81.578 160.213 81.17C160.501 80.762 160.903 80.438 161.419 80.198C161.947 79.946 162.565 79.82 163.273 79.82C164.161 79.82 164.911 79.994 165.523 80.342C166.135 80.69 166.591 81.182 166.891 81.818L165.685 82.61C165.481 82.082 165.151 81.698 164.695 81.458C164.239 81.206 163.765 81.08 163.273 81.08C162.625 81.08 162.121 81.212 161.761 81.476C161.401 81.74 161.221 82.07 161.221 82.466C161.221 82.73 161.311 82.976 161.491 83.204C161.671 83.42 162.007 83.576 162.499 83.672L164.749 84.14C165.589 84.308 166.177 84.584 166.513 84.968C166.849 85.352 167.017 85.82 167.017 86.372C167.017 87.224 166.687 87.908 166.027 88.424C165.367 88.928 164.503 89.18 163.435 89.18ZM175.088 80V81.242H171.812V86.516C171.812 86.96 171.938 87.29 172.19 87.506C172.442 87.722 172.766 87.83 173.162 87.83C173.51 87.83 173.81 87.77 174.062 87.65C174.314 87.53 174.542 87.368 174.746 87.164L175.25 88.37C174.974 88.622 174.644 88.82 174.26 88.964C173.888 89.108 173.456 89.18 172.964 89.18C172.508 89.18 172.082 89.102 171.686 88.946C171.29 88.778 170.972 88.52 170.732 88.172C170.504 87.812 170.384 87.344 170.372 86.768V81.242H168.572V80H170.372V77.84L171.812 77.444V80H175.088ZM177.229 89V80H178.399L178.597 81.476C179.101 80.372 180.061 79.82 181.477 79.82C181.633 79.82 181.801 79.832 181.981 79.856C182.173 79.88 182.335 79.928 182.467 80L182.215 81.314C182.083 81.266 181.939 81.23 181.783 81.206C181.627 81.182 181.405 81.17 181.117 81.17C180.745 81.17 180.367 81.278 179.983 81.494C179.611 81.71 179.299 82.04 179.047 82.484C178.795 82.916 178.669 83.468 178.669 84.14V89H177.229ZM185.296 78.272C184.972 78.272 184.708 78.176 184.504 77.984C184.312 77.78 184.216 77.516 184.216 77.192C184.216 76.868 184.312 76.61 184.504 76.418C184.708 76.214 184.972 76.112 185.296 76.112C185.62 76.112 185.878 76.214 186.07 76.418C186.274 76.61 186.376 76.868 186.376 77.192C186.376 77.516 186.274 77.78 186.07 77.984C185.878 78.176 185.62 78.272 185.296 78.272ZM186.016 80V89H184.576V80H186.016ZM193.084 79.82C194.008 79.82 194.776 80.036 195.388 80.468C196 80.888 196.474 81.47 196.81 82.214L195.442 82.862C195.25 82.286 194.956 81.848 194.56 81.548C194.176 81.236 193.672 81.08 193.048 81.08C192.148 81.08 191.44 81.386 190.924 81.998C190.42 82.598 190.168 83.432 190.168 84.5C190.168 85.568 190.42 86.408 190.924 87.02C191.44 87.62 192.148 87.92 193.048 87.92C193.756 87.92 194.32 87.758 194.74 87.434C195.16 87.11 195.436 86.654 195.568 86.066L196.9 86.534C196.6 87.362 196.126 88.01 195.478 88.478C194.842 88.946 194.044 89.18 193.084 89.18C192.244 89.18 191.494 88.994 190.834 88.622C190.174 88.25 189.658 87.716 189.286 87.02C188.914 86.312 188.728 85.472 188.728 84.5C188.728 83.528 188.914 82.694 189.286 81.998C189.658 81.29 190.174 80.75 190.834 80.378C191.494 80.006 192.244 79.82 193.084 79.82ZM211.821 77.12V84.932C211.821 86.264 211.461 87.308 210.741 88.064C210.033 88.808 209.049 89.18 207.789 89.18C206.457 89.18 205.485 88.808 204.873 88.064C204.261 87.32 204.069 86.324 204.297 85.076L205.629 84.806C205.497 85.826 205.587 86.588 205.899 87.092C206.223 87.584 206.835 87.83 207.735 87.83C208.755 87.83 209.451 87.554 209.823 87.002C210.195 86.438 210.381 85.628 210.381 84.572V77.12H211.821ZM218.42 89.18C217.844 89.18 217.298 89.072 216.782 88.856C216.278 88.64 215.864 88.292 215.54 87.812C215.228 87.32 215.072 86.684 215.072 85.904V80H216.512V85.526C216.512 86.438 216.71 87.068 217.106 87.416C217.502 87.752 218.06 87.92 218.78 87.92C219.236 87.92 219.668 87.818 220.076 87.614C220.484 87.398 220.82 87.068 221.084 86.624C221.348 86.18 221.48 85.604 221.48 84.896V80H222.92V89H221.66L221.57 87.632C221.258 88.172 220.832 88.568 220.292 88.82C219.764 89.06 219.14 89.18 218.42 89.18ZM229.782 89.18C229.038 89.18 228.354 88.994 227.73 88.622C227.106 88.25 226.608 87.716 226.236 87.02C225.864 86.312 225.678 85.472 225.678 84.5C225.678 83.504 225.876 82.658 226.272 81.962C226.668 81.266 227.19 80.738 227.838 80.378C228.486 80.006 229.182 79.82 229.926 79.82C230.574 79.82 231.15 79.97 231.654 80.27C232.158 80.558 232.53 80.954 232.77 81.458V75.86H234.21V89H232.95L232.86 87.308C232.608 87.92 232.2 88.388 231.636 88.712C231.072 89.024 230.454 89.18 229.782 89.18ZM229.926 87.92C230.778 87.92 231.462 87.602 231.978 86.966C232.506 86.33 232.77 85.466 232.77 84.374C232.77 83.342 232.512 82.538 231.996 81.962C231.48 81.374 230.814 81.08 229.998 81.08C229.086 81.08 228.378 81.392 227.874 82.016C227.37 82.64 227.118 83.468 227.118 84.5C227.118 85.532 227.364 86.36 227.856 86.984C228.348 87.608 229.038 87.92 229.926 87.92ZM242.399 87.848C243.251 87.848 243.917 88.046 244.397 88.442C244.877 88.826 245.117 89.342 245.117 89.99C245.117 90.578 244.919 91.088 244.523 91.52C244.139 91.952 243.617 92.282 242.957 92.51C242.309 92.75 241.577 92.87 240.761 92.87C239.345 92.87 238.283 92.63 237.575 92.15C236.879 91.67 236.531 91.094 236.531 90.422C236.531 90.014 236.645 89.642 236.873 89.306C237.101 88.97 237.479 88.73 238.007 88.586C237.719 88.454 237.485 88.274 237.305 88.046C237.125 87.806 237.035 87.488 237.035 87.092C237.035 86.72 237.143 86.384 237.359 86.084C237.575 85.772 237.899 85.532 238.331 85.364C237.875 85.1 237.527 84.752 237.287 84.32C237.047 83.888 236.927 83.402 236.927 82.862C236.927 82.262 237.083 81.734 237.395 81.278C237.719 80.822 238.157 80.468 238.709 80.216C239.261 79.952 239.897 79.82 240.617 79.82C241.373 79.82 242.051 79.97 242.651 80.27C242.735 79.67 242.999 79.202 243.443 78.866C243.899 78.518 244.433 78.344 245.045 78.344H245.135L245.459 79.622H245.333C244.781 79.622 244.349 79.724 244.037 79.928C243.725 80.132 243.551 80.45 243.515 80.882C244.043 81.434 244.307 82.094 244.307 82.862C244.307 83.45 244.151 83.978 243.839 84.446C243.527 84.902 243.089 85.262 242.525 85.526C241.973 85.778 241.337 85.904 240.617 85.904C240.173 85.904 239.759 85.862 239.375 85.778C239.015 85.886 238.757 86.036 238.601 86.228C238.445 86.42 238.367 86.63 238.367 86.858C238.367 87.518 238.835 87.848 239.771 87.848H242.399ZM240.617 80.99C239.993 80.99 239.471 81.164 239.051 81.512C238.631 81.848 238.421 82.298 238.421 82.862C238.421 83.414 238.631 83.864 239.051 84.212C239.471 84.56 239.993 84.734 240.617 84.734C241.241 84.734 241.763 84.56 242.183 84.212C242.603 83.864 242.813 83.414 242.813 82.862C242.813 82.298 242.603 81.848 242.183 81.512C241.763 81.164 241.241 80.99 240.617 80.99ZM240.743 91.664C241.787 91.664 242.555 91.508 243.047 91.196C243.539 90.896 243.785 90.548 243.785 90.152C243.785 89.828 243.653 89.57 243.389 89.378C243.137 89.186 242.675 89.09 242.003 89.09H239.231C238.847 89.09 238.523 89.186 238.259 89.378C237.995 89.582 237.863 89.858 237.863 90.206C237.863 90.65 238.115 91.004 238.619 91.268C239.135 91.532 239.843 91.664 240.743 91.664ZM250.899 89.18C250.047 89.18 249.285 88.994 248.613 88.622C247.953 88.25 247.437 87.716 247.065 87.02C246.693 86.312 246.507 85.472 246.507 84.5C246.507 83.528 246.693 82.694 247.065 81.998C247.437 81.29 247.947 80.75 248.595 80.378C249.243 80.006 249.981 79.82 250.809 79.82C251.649 79.82 252.363 80 252.951 80.36C253.551 80.72 254.007 81.212 254.319 81.836C254.631 82.448 254.787 83.138 254.787 83.906C254.787 84.11 254.781 84.296 254.769 84.464C254.757 84.632 254.739 84.782 254.715 84.914H247.929C248.001 85.862 248.295 86.6 248.811 87.128C249.327 87.656 250.011 87.92 250.863 87.92C251.523 87.92 252.057 87.794 252.465 87.542C252.885 87.29 253.221 86.948 253.473 86.516L254.607 87.182C254.271 87.794 253.785 88.28 253.149 88.64C252.525 89 251.775 89.18 250.899 89.18ZM250.773 81.08C250.017 81.08 249.393 81.308 248.901 81.764C248.421 82.208 248.115 82.832 247.983 83.636H253.347C253.311 82.82 253.059 82.19 252.591 81.746C252.123 81.302 251.517 81.08 250.773 81.08Z" fill="#43598A"/>
<rect width="362" height="5" rx="2.5" fill="#43598A"/>
<rect y="80" width="90" height="5" rx="2.5" fill="#43598A"/>
<rect x="272" y="80" width="90" height="5" rx="2.5" fill="#43598A"/>
</svg>
